<?xml version="1.0" encoding="UTF-8" standalone="no"?>
<svg
   width="61.011211mm"
   height="61.011177mm"
   viewBox="0 0 61.011211 61.011177"
   version="1.1"
   id="svg5527"
   inkscape:version="1.3 (0e150ed6c4, 2023-07-21)"
   sodipodi:docname="catz-wheel.svg"
   xmlns:inkscape="http://www.inkscape.org/namespaces/inkscape"
   xmlns:sodipodi="http://sodipodi.sourceforge.net/DTD/sodipodi-0.dtd"
   xmlns="http://www.w3.org/2000/svg"
   xmlns:svg="http://www.w3.org/2000/svg"
   xmlns:rdf="http://www.w3.org/1999/02/22-rdf-syntax-ns#"
   xmlns:cc="http://creativecommons.org/ns#"
   xmlns:dc="http://purl.org/dc/elements/1.1/">
  <defs
     id="defs5521" />
  <sodipodi:namedview
     id="base"
     pagecolor="#ffffff"
     bordercolor="#666666"
     borderopacity="1.0"
     inkscape:pageopacity="0.0"
     inkscape:pageshadow="2"
     inkscape:zoom="1.4142136"
     inkscape:cx="539.87601"
     inkscape:cy="68.235803"
     inkscape:document-units="mm"
     inkscape:current-layer="g5502"
     inkscape:document-rotation="0"
     showgrid="false"
     inkscape:window-width="3440"
     inkscape:window-height="1377"
     inkscape:window-x="-8"
     inkscape:window-y="-8"
     inkscape:window-maximized="1"
     inkscape:showpageshadow="2"
     inkscape:pagecheckerboard="0"
     inkscape:deskcolor="#d1d1d1" />
  <metadata
     id="metadata5524">
    <rdf:RDF>
      <cc:Work
         rdf:about="">
        <dc:format>image/svg+xml</dc:format>
        <dc:type
           rdf:resource="http://purl.org/dc/dcmitype/StillImage" />
        <dc:title />
      </cc:Work>
    </rdf:RDF>
  </metadata>
  <g
     transform="translate(-63.988442,-138.82775)"
     inkscape:label="Layer 1"
     inkscape:groupmode="layer"
     id="layer1">
    <g
       id="g5502"
       transform="matrix(0.26458333,0,0,0.26458333,71.433023,238.90122)"
       style="fill:#000000;stroke:#ffffff">
      <path
         inkscape:export-ydpi="360"
         inkscape:export-xdpi="360"
         inkscape:export-filename="C:\Users\David\Desktop\Rowing\Graphics\path4134.png"
         id="path5122"
         d="m 82.744709,-149.02332 c 2.713259,-0.20183 5.177554,-1.45355 6.910579,-3.19616 3.543465,-3.56308 4.222945,-4.47795 4.222945,-10.22754 L 93.686999,-262.5502 h 0.05841 l 0.319516,-101.06197 c 1.381884,-7.27999 -0.2272,-6.45221 4.543081,-11.31436 -1.993371,-1.29117 -3.978202,-1.84666 -5.886638,-1.91765 -0.39753,-0.01 -0.764334,-0.0298 -1.151562,0 -2.713199,0.20185 -5.177534,1.45354 -6.910359,3.19617 -3.543665,3.56307 -4.223045,4.47804 -4.223045,10.22762 l 0.191234,100.10316 h -0.05821 l -0.319516,101.0619 c -1.381864,7.28005 0.22722,6.45219 -4.543041,11.31435 1.993511,1.29119 3.978181,1.84673 5.886778,1.91766 0.39755,0.01 0.764335,0.0298 1.151523,0 z"
         style="fill:#000000;stroke:#ffffff;stroke-width:2.73948;stroke-miterlimit:4;stroke-dasharray:none"
         inkscape:connector-curvature="0" />
      <path
         inkscape:export-ydpi="360"
         inkscape:export-xdpi="360"
         inkscape:export-filename="C:\Users\David\Desktop\Rowing\Graphics\path4134.png"
         inkscape:connector-curvature="0"
         style="fill:#000000;stroke:#ffffff;stroke-width:2.73948;stroke-miterlimit:4;stroke-dasharray:none"
         d="m 164.58468,-179.26495 c 1.7765,-2.06074 2.63337,-4.68888 2.62644,-7.14644 -0.01,-5.02517 -0.18022,-6.15251 -4.24579,-10.21824 l -70.919321,-70.64784 0.04061,-0.0408 -71.235462,-71.68784 c -4.170195,-6.1253 -4.723393,-4.4014 -4.788064,-11.21288 -2.32253,0.49661 -4.118666,1.50726 -5.518353,2.80654 -0.290731,0.27054 -0.5601392,0.51933 -0.8147442,0.81466 -1.776473,2.06074 -2.633344,4.68891 -2.626383,7.14646 0.01,5.02524 0.180232,6.15264 4.2457492,10.2182 l 70.919326,70.64802 -0.04061,0.0406 71.235422,71.68788 c 4.17021,6.1251 4.72341,4.40121 4.78806,11.2127 2.32257,-0.49663 4.11867,-1.50723 5.51838,-2.80654 0.29075,-0.27057 0.56016,-0.51989 0.81471,-0.81466 z"
         id="path5124" />
      <path
         inkscape:export-ydpi="360"
         inkscape:export-xdpi="360"
         inkscape:export-filename="C:\Users\David\Desktop\Rowing\Graphics\path4134.png"
         id="path5126"
         d="m 201.07028,-258.51871 c -0.20184,-2.71325 -1.45356,-5.17757 -3.19616,-6.91039 -3.56348,-3.54321 -4.47811,-4.22305 -10.22767,-4.22305 l -100.103175,0.19123 v -0.0582 l -101.061981,-0.31952 c -7.280023,-1.3819 -6.452178,0.22721 -11.314195,-4.54301 -1.291207,1.99337 -1.846705,3.9782 -1.917818,5.88661 -0.01,0.39751 -0.0298,0.76434 0,1.15155 0.201835,2.71325 1.453556,5.17755 3.196184,6.91034 3.563487,3.54322 4.478149,4.2231 10.227743,4.2231 l 100.103152,-0.19183 v 0.0584 l 101.06199,0.31954 c 7.27996,1.38186 6.45216,-0.22722 11.31427,4.54304 1.29127,-1.99353 1.84654,-3.97824 1.91766,-5.88678 0.01,-0.39751 0.0298,-0.76434 0,-1.15158 z"
         style="fill:#000000;stroke:#ffffff;stroke-width:2.73948;stroke-miterlimit:4;stroke-dasharray:none"
         inkscape:connector-curvature="0" />
      <path
         inkscape:export-ydpi="360"
         inkscape:export-xdpi="360"
         inkscape:export-filename="C:\Users\David\Desktop\Rowing\Graphics\path4134.png"
         inkscape:connector-curvature="0"
         style="fill:#000000;stroke:#ffffff;stroke-width:2.73948;stroke-miterlimit:4;stroke-dasharray:none"
         d="m 170.82846,-340.3586 c -2.06066,-1.77641 -4.68901,-2.63328 -7.14635,-2.6264 -5.0253,0.01 -6.15269,0.18023 -10.21827,4.24595 l -70.648038,70.91922 -0.04081,-0.0408 -71.687902,71.2354 c -6.1252992,4.17028 -4.4012152,4.72348 -11.21269723,4.78805 0.496588,2.32259 1.50722603,4.11887 2.80645503,5.51861 0.270548,0.29073 0.519931,0.56014 0.814764,0.81473 2.060723,1.77643 4.688847,2.63328 7.1464002,2.62642 5.025106,-0.01 6.152505,-0.18024 10.218242,-4.24581 l 70.647859,-70.91935 0.0408,0.0408 71.687837,-71.23529 c 6.12531,-4.17036 4.40142,-4.72354 11.21286,-4.78815 -0.49659,-2.32255 -1.50722,-4.11872 -2.80649,-5.51844 -0.27057,-0.29073 -0.51991,-0.56013 -0.81475,-0.81472 z"
         id="path5128" />
      <circle
         inkscape:export-ydpi="360"
         inkscape:export-xdpi="360"
         inkscape:export-filename="C:\Users\David\Desktop\Rowing\Graphics\path4134.png"
         transform="matrix(1.9904385,0,0,1.9904385,-626.5546,-844.86283)"
         id="path5130"
         style="fill:#000000;fill-opacity:1;stroke:#ffffff;stroke-width:0.948784;stroke-miterlimit:4;stroke-dasharray:none"
         cx="358.57144"
         cy="292.36218"
         r="11.785714" />
      <circle
         inkscape:export-ydpi="360"
         inkscape:export-xdpi="360"
         inkscape:export-filename="C:\Users\David\Desktop\Rowing\Graphics\path4134.png"
         style="fill:#000000;fill-opacity:1;stroke:#ffffff;stroke-width:0.988316;stroke-miterlimit:4;stroke-dasharray:none"
         id="path5132"
         transform="matrix(1.4331158,0,0,1.4331158,-426.71453,-681.92277)"
         cx="358.57144"
         cy="292.36218"
         r="11.785714" />
      <path
         inkscape:export-ydpi="360"
         inkscape:export-xdpi="360"
         inkscape:export-filename="C:\Users\David\Desktop\Rowing\Graphics\path4134.png"
         style="fill:#000000;stroke:#ffffff;stroke-width:2.81071;stroke-miterlimit:4;stroke-dasharray:none"
         d="m 87.159748,-348.09104 c -47.041316,0 -85.1571972,38.10322 -85.1571972,85.12899 0,47.02581 38.1158812,85.18561 85.1571972,85.18561 47.041582,0 85.157402,-38.1598 85.157402,-85.18561 0,-47.02577 -38.11582,-85.12899 -85.157402,-85.12899 z m 0,11.51617 c 40.669152,0 73.637402,32.95733 73.637402,73.61282 0,40.65563 -32.96825,73.61298 -73.637402,73.61298 -40.668892,0 -73.637166,-32.95735 -73.637166,-73.61298 0,-40.65549 32.968274,-73.61282 73.637166,-73.61282 z"
         id="path5134"
         inkscape:connector-curvature="0" />
      <path
         inkscape:export-ydpi="360"
         inkscape:export-xdpi="360"
         inkscape:connector-curvature="0"
         id="path5136"
         d="m 87.159748,-357.55297 c -52.268138,0 -94.6191262,42.33693 -94.6191262,94.58778 0,52.25089 42.3509882,94.65068 94.6191262,94.65068 52.268402,0 94.619322,-42.39979 94.619322,-94.65068 0,-52.25085 -42.35092,-94.58778 -94.619322,-94.58778 z m 0,12.79576 c 45.187932,0 81.819332,36.61926 81.819332,81.79202 0,45.17292 -36.6314,81.7922 -81.819332,81.7922 -45.187669,0 -81.8190892,-36.61928 -81.8190892,-81.7922 0,-45.17276 36.6314202,-81.79202 81.8190892,-81.79202 z"
         style="fill:#000000;stroke:#ffffff;stroke-width:3.12301;stroke-miterlimit:4;stroke-dasharray:none" />
      <path
         transform="translate(-28.136999,-378.23044)"
         id="path907"
         d="m 106.62175,229.88725 c -1.16513,-0.38103 -3.40044,-1.52537 -4.30789,-2.20538 -0.0701,-0.0525 0.75811,-1.13929 1.84043,-2.41507 1.20217,-1.41704 2.03914,-2.76605 2.15108,-3.46704 0.6436,-4.03028 0.90887,-6.51345 0.90887,-8.50777 v -2.2751 l -3.44714,-0.42137 c -11.112548,-1.35836 -21.98627,-4.7027 -32.082344,-9.86728 -4.86609,-2.48921 -12.323242,-7.27581 -16.002704,-10.27182 -1.216319,-0.99039 -2.315,-1.80071 -2.441519,-1.80071 -0.126516,0 -1.759229,1.48387 -3.628246,3.29749 -4.046822,3.92686 -5.279942,4.48069 -9.976464,4.48069 -4.049081,0 -6.505039,-0.88588 -9.001449,-3.24688 -1.804759,-1.70687 -3.334143,-4.45704 -3.847007,-6.91778 l -0.239482,-1.14905 h 2.514321 c 1.382876,0 3.026283,-0.21434 3.652014,-0.47632 2.135855,-0.89422 9.092644,-6.54129 9.092644,-7.38082 0,-0.15692 -0.980969,-1.5159 -2.179929,-3.01998 -6.270209,-7.86587 -11.772604,-18.03855 -15.152239,-28.01305 -2.297541,-6.78086 -3.348993,-11.55318 -4.801256,-21.79192 l -0.157208,-1.10834 -4.676198,-0.14813 c -5.6016005,-0.17744 -6.823924,-0.61717 -10.070306,-3.62274 -1.4980602,-1.38694 -2.5606107,-2.7751 -3.3472337,-4.37296 -1.01076514,-2.05315 -1.1496524,-2.67728 -1.1296089,-5.07618 0.0202466,-2.42319 0.17405501,-3.04113 1.3483612,-5.41718 l 1.3255079,-2.68198 1.9843442,1.81358 c 1.0913897,0.99746 2.3549605,1.95448 2.8079352,2.1267 1.2424255,0.47237 7.7561381,1.38757 9.8756751,1.38757 2.126572,0 1.842369,0.57619 2.615855,-5.3033 2.098594,-15.952008 8.832019,-32.031513 18.876807,-45.078054 1.197715,-1.555635 2.302166,-3.030865 2.454339,-3.278292 0.183042,-0.297618 -0.742532,-1.532569 -2.734926,-3.649078 -4.164053,-4.423455 -4.642634,-5.496666 -4.636257,-10.396746 0.0046,-3.518949 0.09759,-4.078408 0.977273,-5.878316 1.655524,-3.387348 5.265372,-6.205373 8.776231,-6.851157 l 1.273284,-0.234207 0.192803,2.81293 c 0.106041,1.547112 0.39353,3.191148 0.638867,3.653413 0.741228,1.396635 4.411339,6.054716 5.899689,7.487848 l 1.395847,1.344065 1.910959,-1.538204 C 69.012875,29.371544 86.163152,22.143104 103.7671,19.991253 l 3.44714,-0.421369 0.0191,-2.34283 c 0.0313,-3.851845 0.53717,-7.574885 1.22653,-9.0276153 1.10604,-2.330793 4.23434,-5.3815155 6.82485,-6.6555971 2.06011,-1.01321597 2.69752,-1.15530805 5.18263,-1.15530805 2.9358,0 4.26521,0.37044698 6.66212,1.85643415 l 1.35364,0.8391988 -1.58099,1.6901954 c -0.86953,0.9296075 -1.8153,2.152729 -2.1017,2.7180474 -0.6849,1.3518945 -1.32268,5.8411097 -1.32268,9.3100617 v 2.773247 l 2.03293,0.235203 c 17.79083,2.058338 34.66056,8.840869 48.22349,19.388416 l 3.53407,2.748358 3.0684,-2.872466 c 1.68762,-1.579853 3.78435,-3.293912 4.6594,-3.809018 1.48237,-0.872615 1.88062,-0.936552 5.83363,-0.936552 3.93115,0 4.39066,0.07269 6.25882,0.990077 3.34881,1.644493 5.75353,4.88854 6.76892,9.131531 l 0.22237,0.929219 -3.12828,0.149564 -3.12827,0.149567 -2.6129,1.921089 c -2.93383,2.157051 -6.32521,5.223889 -6.32521,5.719921 0,0.179764 1.01513,1.62835 2.25584,3.219083 7.94584,10.187496 13.94686,22.488046 17.19356,35.242375 1.12658,4.425636 2.47073,12.142475 2.47084,14.185205 l 7e-5,1.2805 4.87768,0.15567 c 4.13786,0.13206 5.12761,0.27666 6.52561,0.95342 2.5611,1.23981 5.74095,4.52818 7.0183,7.25781 1.0008,2.13867 1.08513,2.59632 0.9715,5.27225 -0.10562,2.48748 -0.30548,3.28688 -1.32255,5.28996 l -1.19812,2.35968 -1.98386,-1.70819 c -1.09112,-0.9395 -2.31842,-1.88377 -2.72733,-2.09839 -0.99643,-0.52296 -7.53296,-1.48166 -10.10218,-1.48166 h -2.05905 v 1.10367 c 0,2.03779 -1.08184,8.57934 -2.18553,13.21524 -3.141,13.19333 -9.24757,25.90947 -17.54919,36.54392 l -2.58739,3.31446 3.20394,3.26712 c 4.1504,4.23222 4.74565,5.51371 4.76633,10.26106 0.0135,3.09559 -0.10056,3.78521 -0.91643,5.542 -1.22236,2.63206 -3.34786,4.89372 -5.66545,6.02839 -2.02737,0.99257 -4.50862,1.59782 -4.54437,1.10849 -0.0122,-0.16748 -0.14763,-1.61591 -0.30089,-3.21873 l -0.27864,-2.91421 -2.49923,-3.27297 c -1.37457,-1.80013 -3.05498,-3.80785 -3.73424,-4.46159 l -1.23503,-1.18863 -2.41721,1.92111 c -14.02823,11.14908 -31.68865,18.38658 -49.49524,20.28385 l -2.17676,0.23193 -0.12957,4.81942 c -0.15601,5.8025 -0.57356,6.94422 -3.73559,10.21434 -2.73244,2.82585 -5.26058,4.04354 -8.73255,4.20608 -1.47363,0.069 -3.09832,-0.0808 -3.97059,-0.36604 z m 0.59249,-56.55352 c 0,-7.64927 0.10446,-18.67273 0.23214,-24.49658 l 0.23213,-10.58882 -1.55313,-0.61008 -1.55313,-0.61009 -17.328946,17.34001 -17.328946,17.34001 0.883884,0.69714 c 6.84445,5.39834 16.433617,10.22552 24.948473,12.55903 2.969771,0.81387 9.521095,2.14975 11.025585,2.24822 0.34655,0.0227 0.44194,-2.9729 0.44194,-13.87884 z m 22.80419,12.79617 c 5.01107,-0.98214 12.36746,-3.51059 17.32412,-5.95444 3.92234,-1.93387 9.97214,-5.67958 12.19713,-7.55178 l 0.9387,-0.78987 -17.22271,-17.38579 -17.2227,-17.3858 -1.45441,0.57131 -1.45442,0.57131 v 24.53999 24.54 l 1.67938,-0.231 c 0.92366,-0.12704 3.27037,-0.54281 5.21491,-0.92393 z m 45.36971,-30.53143 c 5.91979,-8.75054 10.44837,-20.59834 11.58812,-30.3172 l 0.2384,-2.03293 -24.53225,0.002 -24.53225,0.002 -0.57172,1.32402 -0.57172,1.32403 17.36407,17.4124 17.36406,17.4124 0.63074,-0.79539 c 0.34691,-0.4374 1.70706,-2.38631 3.02255,-4.33086 z m -99.105546,-12.45158 17.247522,-17.04778 -0.508838,-1.337 -0.508837,-1.337 -24.623841,-0.0908 -24.623845,-0.0908 0.191078,1.32822 c 1.377801,9.57731 4.512922,18.88735 8.940125,26.54855 2.335768,4.04201 6.01839,9.32215 6.396452,9.17123 0.133463,-0.0533 8.004046,-7.76837 17.490184,-17.14465 z M 187.08266,107.13738 c 0.25818,-0.25818 -0.65403,-5.74403 -1.5833,-9.521664 -2.19877,-8.938364 -7.53252,-19.994862 -12.78727,-26.507167 l -0.79342,-0.983289 -14.76293,14.514438 c -8.11962,7.982939 -15.97628,15.759282 -17.45925,17.280762 l -2.69631,2.76632 0.63807,1.41422 0.63808,1.41421 24.32497,-0.11071 c 13.37873,-0.0609 24.39534,-0.1811 24.48136,-0.26712 z M 93.027794,105.80754 93.543148,104.45342 76.265842,87.173414 C 62.459759,73.36517 58.89143,69.974003 58.505205,70.294542 c -1.143827,0.94929 -6.320379,9.22927 -8.245336,13.188545 -3.309599,6.807222 -5.326826,13.53483 -6.86205,22.885473 l -0.160026,0.97468 24.637326,-0.0908 24.637322,-0.0908 z m 13.567726,-13.035545 0.97227,-0.351976 V 67.849469 43.278915 l -1.85615,0.239848 c -3.83533,0.495589 -9.070774,1.715373 -13.33909,3.107819 -6.699041,2.185419 -16.607891,7.436932 -21.314747,11.29643 l -0.977872,0.801831 17.201433,17.431723 c 12.759156,12.929971 17.348696,17.371765 17.771666,17.199563 0.31362,-0.127686 1.00774,-0.390546 1.54249,-0.584134 z m 36.8593,-16.558174 17.32276,-17.336027 -0.88388,-0.705774 c -5.21592,-4.164866 -14.4776,-9.154537 -21.21321,-11.428479 -3.51448,-1.186487 -9.89572,-2.70193 -13.47482,-3.200058 l -1.63079,-0.226964 -0.22147,1.340201 c -0.12182,0.737109 -0.22324,11.779374 -0.22537,24.538359 l -0.004,23.198162 1.32582,0.543945 c 0.72921,0.299173 1.40598,0.55941 1.50396,0.578307 0.098,0.01888 7.97337,-7.766853 17.50089,-17.301672 z"
         style="fill:#000000;stroke-width:0.353553;stroke:#ffffff" />
      <path
         transform="translate(-28.136999,-378.23044)"
         id="path909"
         d="m 106.62175,229.88725 c -1.17464,-0.38413 -3.46665,-1.56043 -4.31918,-2.21667 -0.0763,-0.0587 0.56262,-0.94591 1.41978,-1.97153 0.85717,-1.02563 1.75035,-2.11431 1.98486,-2.41929 0.54831,-0.71308 1.50703,-7.07861 1.50703,-10.0061 v -2.25677 l -3.44714,-0.41991 c -16.907836,-2.05963 -33.362406,-8.81257 -46.934217,-19.26177 -1.555635,-1.19772 -3.036518,-2.30566 -3.290854,-2.46211 -0.315935,-0.19433 -1.549865,0.77077 -3.895193,3.04658 -4.084641,3.96356 -5.305808,4.51421 -10.011013,4.51421 -4.049081,0 -6.505039,-0.88588 -9.001449,-3.24688 -1.804759,-1.70687 -3.334143,-4.45704 -3.847007,-6.91778 l -0.239482,-1.14905 h 2.479949 c 1.363972,0 2.918852,-0.16687 3.455288,-0.37082 1.817665,-0.69108 9.323742,-6.63286 9.323742,-7.38064 0,-0.12655 -1.401892,-2.08756 -3.115315,-4.3578 -5.741668,-7.60758 -10.41701,-16.21214 -13.639763,-25.10282 -2.585754,-7.13338 -3.833404,-12.57787 -5.378346,-23.47001 l -0.157208,-1.10834 -4.676198,-0.14813 c -5.6016005,-0.17744 -6.823924,-0.61717 -10.070306,-3.62274 -1.4980602,-1.38694 -2.5606107,-2.7751 -3.3472337,-4.37296 -1.01076514,-2.05315 -1.1496524,-2.67728 -1.1296089,-5.07618 0.0202441,-2.42289 0.1741096,-3.04124 1.3475619,-5.41556 l 1.3247085,-2.68037 1.8094208,1.62682 c 0.9951814,0.89476 2.2364653,1.84766 2.7584087,2.11757 1.1360837,0.58749 7.4822377,1.58023 10.1017237,1.58023 2.126572,0 1.842369,0.57619 2.615855,-5.3033 2.098594,-15.952008 8.832019,-32.031513 18.876807,-45.078054 1.197715,-1.555635 2.295863,-3.020665 2.440328,-3.255622 0.16431,-0.26723 -0.866368,-1.647213 -2.752455,-3.685292 -4.169541,-4.50554 -4.61107,-5.501146 -4.604717,-10.383202 0.0046,-3.518949 0.09759,-4.078408 0.977273,-5.878316 1.655524,-3.387348 5.265372,-6.205373 8.776231,-6.851157 l 1.273284,-0.234207 0.192803,2.81293 c 0.106041,1.547112 0.39353,3.191148 0.638867,3.653413 0.738828,1.392111 4.409295,6.052758 5.888103,7.476538 l 1.384268,1.332755 2.955056,-2.328188 c 13.32875,-10.50127 30.343804,-17.54146 47.419778,-19.620523 l 3.39623,-0.413505 0.23913,-4.529543 c 0.30271,-5.7338677 0.78073,-7.1265792 3.44348,-10.0324988 3.01677,-3.2922769 5.81534,-4.6323511 9.67228,-4.63149755 2.94871,6.5407e-4 4.99223,0.58584093 6.97425,1.99716385 l 0.99944,0.7116628 -1.62294,1.8051017 c -0.89262,0.9928058 -1.8313,2.2128174 -2.08597,2.7111368 -0.59367,1.1616831 -1.25439,6.1164972 -1.25439,9.4067962 v 2.554696 l 2.03293,0.235203 c 18.06785,2.090388 35.49355,9.189751 48.9868,19.957605 l 2.7597,2.202288 3.00589,-2.845324 c 1.65324,-1.564929 3.75245,-3.284189 4.66492,-3.820579 1.56213,-0.918285 1.90686,-0.975252 5.90168,-0.975252 3.93115,0 4.39066,0.07269 6.25882,0.990077 3.34881,1.644493 5.75353,4.88854 6.76892,9.131531 l 0.22237,0.929219 -3.12828,0.149564 -3.12827,0.149567 -2.6129,1.921089 c -2.77498,2.040254 -6.32521,5.216147 -6.32521,5.658279 0,0.145859 1.40712,2.151295 3.12693,4.456519 7.42875,9.957475 12.85737,21.092398 16.11638,33.057168 1.02065,3.747086 2.677,13.111228 2.677,15.134328 v 1.34079 l 4.87768,0.15567 c 4.13786,0.13206 5.12761,0.27666 6.52561,0.95342 2.5611,1.23981 5.74095,4.52818 7.0183,7.25781 1.0008,2.13867 1.08513,2.59632 0.9715,5.27225 -0.10562,2.48735 -0.3055,3.28691 -1.32232,5.28952 l -1.1979,2.35922 -1.7391,-1.49462 c -0.95651,-0.82204 -2.16754,-1.76017 -2.69119,-2.08472 -1.06155,-0.65793 -7.52225,-1.708 -10.50873,-1.708 -1.92976,0 -1.93385,0.002 -1.93385,1.10367 0,3.52546 -2.22874,14.49372 -4.12216,20.28631 -3.44757,10.54721 -8.95583,20.94552 -15.61256,29.47285 l -2.58739,3.31446 3.20394,3.26712 c 4.1504,4.23222 4.74565,5.51371 4.76633,10.26106 0.0135,3.09559 -0.10056,3.78521 -0.91643,5.542 -1.22236,2.63206 -3.34786,4.89372 -5.66545,6.02839 -2.02737,0.99257 -4.50862,1.59782 -4.54437,1.10849 -0.42116,-5.7651 -0.49585,-6.01964 -2.5516,-8.69635 -1.08488,-1.41257 -2.74821,-3.43133 -3.69628,-4.48613 l -1.72377,-1.91782 -2.80896,2.21899 c -13.90538,10.98482 -31.48521,18.14479 -49.17987,20.03014 l -2.17676,0.23193 -0.12957,4.81942 c -0.10652,3.96159 -0.26196,5.10882 -0.87329,6.44528 -1.07222,2.34406 -4.58601,5.7915 -7.05506,6.92187 -2.45324,1.12313 -6.2419,1.42907 -8.51038,0.68723 z m 0.59314,-56.87627 c 3.5e-4,-7.82679 0.10478,-18.85027 0.23205,-24.49663 l 0.23139,-10.26609 -1.55304,-0.61005 -1.55304,-0.61005 -17.328946,17.34001 -17.328946,17.34001 0.883884,0.70967 c 4.681135,3.75851 13.559377,8.63805 19.79899,10.88165 4.816365,1.73184 12.963888,3.70289 16.175068,3.91307 0.3467,0.0227 0.44208,-3.03777 0.44259,-14.20159 z m 22.62677,13.1163 c 4.97503,-0.96309 12.38908,-3.46631 17.14734,-5.7895 3.92188,-1.91484 11.95695,-6.95139 12.86455,-8.06377 0.441,-0.54051 -1.22597,-2.32922 -16.61701,-17.83055 -9.40896,-9.47637 -17.18674,-17.22716 -17.28397,-17.22398 -0.0972,0.003 -0.7734,0.21439 -1.5026,0.46936 l -1.32583,0.46357 v 24.57562 24.57562 l 1.50261,-0.22886 c 0.82643,-0.12588 3.17314,-0.55226 5.21491,-0.94751 z m -53.561789,-43.00426 17.232076,-17.07164 -0.499751,-1.31313 -0.499755,-1.31314 -24.58559,-0.0908 -24.585587,-0.0908 0.316247,2.38888 c 1.135228,8.57524 4.659869,18.67786 9.132461,26.1762 2.274631,3.81343 5.674365,8.613 6.008799,8.4829 0.136963,-0.0533 8.003458,-7.77912 17.4811,-17.16852 z m 96.249709,16.45293 c 2.85717,-3.07841 8.24144,-12.70233 10.49693,-18.76236 1.98928,-5.3448 4.0886,-13.95173 4.09031,-16.76976 l 4.9e-4,-0.79549 -24.48358,0.002 -24.48357,0.002 -0.57171,1.32402 -0.57172,1.32403 17.18737,17.23572 c 9.45306,9.47965 17.27958,17.23573 17.39226,17.23573 0.11269,0 0.53714,-0.35797 0.94322,-0.79549 z m -7.37229,-52.235 22.05737,-0.003 -0.2384,-2.03293 c -1.12385,-9.583268 -5.68694,-21.58683 -11.45771,-30.140425 -1.3775,-2.04177 -2.75535,-4.025806 -3.06187,-4.408962 -0.5355,-0.669376 -0.8789,-0.37866 -8.76986,7.424405 -23.1386,22.880852 -26.42054,26.178742 -26.42054,26.548922 0,0.22073 0.24995,0.99954 0.55546,1.73071 l 0.55545,1.3294 2.36136,-0.22305 c 1.29875,-0.12267 12.28718,-0.22417 24.41874,-0.22555 z M 93.027759,105.80764 93.543074,104.45361 77.839629,88.7258 C 69.202733,80.075501 61.363355,72.342744 60.418784,71.541899 l -1.7174,-1.456085 -0.683167,0.860252 c -2.162248,2.722725 -5.949254,8.852928 -7.762979,12.566288 -3.2241,6.600923 -5.441413,13.987089 -6.861393,22.856206 l -0.156052,0.97468 24.637326,-0.0908 24.637322,-0.0908 z M 107.56779,67.823458 V 43.264982 l -1.67937,0.232415 c -4.11259,0.569154 -9.440994,1.800291 -13.447482,3.10707 -6.671588,2.17604 -16.730542,7.500688 -21.382209,11.318545 l -0.976949,0.801831 17.240405,17.434287 17.240405,17.434283 1.5026,-0.60574 1.5026,-0.605743 z m 35.88703,8.390363 17.32276,-17.336027 -0.88388,-0.706199 c -4.2683,-3.410238 -11.57292,-7.585166 -17.5009,-10.002555 -5.73918,-2.340404 -18.11585,-5.386825 -18.86092,-4.642471 -0.12703,0.126904 -0.27784,11.171117 -0.33514,24.542693 l -0.10418,24.311958 1.34162,0.549959 c 0.73789,0.302476 1.42177,0.565417 1.51974,0.584314 0.098,0.01888 7.97338,-7.766853 17.5009,-17.301672 z"
         style="fill:#000000;stroke-width:0.353553;stroke:#ffffff" />
      <path
         transform="translate(-28.136999,-378.23044)"
         id="path911"
         d="m 106.65055,229.89575 c -1.59372,-0.52219 -4.38606,-2.0068 -4.38606,-2.33195 0,-0.11338 0.69093,-0.9989 1.5354,-1.96783 0.84447,-0.96893 1.73884,-2.14532 1.98749,-2.6142 0.56388,-1.06328 1.41081,-6.90767 1.41999,-9.79883 l 0.007,-2.16605 -3.44715,-0.41991 C 88.899641,208.7859 74.809379,203.5512 62.270789,195.18059 c -2.696563,-1.80019 -5.65963,-3.89815 -6.584593,-4.66213 -0.924966,-0.76398 -1.872136,-1.49978 -2.104827,-1.63511 -0.256015,-0.14889 -1.810508,1.06525 -3.936767,3.07481 -4.167126,3.93844 -5.368627,4.47573 -10.008779,4.47573 -4.049081,0 -6.505039,-0.88588 -9.001449,-3.24688 -1.804759,-1.70687 -3.334143,-4.45704 -3.847007,-6.91778 l -0.239482,-1.14905 h 2.604986 c 3.122279,0 3.998064,-0.39042 8.113841,-3.61706 3.397315,-2.66339 4.698887,-3.9718 4.412314,-4.43548 -0.111055,-0.1797 -1.533276,-2.10084 -3.160492,-4.26921 -7.420692,-9.88858 -13.09747,-21.65155 -16.149343,-33.46341 -0.888164,-3.43752 -2.006923,-9.50153 -2.650561,-14.36681 l -0.216811,-1.63888 -4.677468,-0.13669 c -4.22155,-0.12336 -4.8694903,-0.23063 -6.6475202,-1.10054 -2.5089521,-1.22752 -5.7054273,-4.55587 -6.9431473,-7.22962 -0.77056889,-1.66459 -0.94361645,-2.54327 -0.93233261,-4.7341 0.0121078,-2.3508 0.1777176,-3.03517 1.31293911,-5.42563 l 1.2990836,-2.7355 1.8353119,1.65011 c 2.5135345,2.25988 3.0977624,2.50695 7.4607445,3.15513 4.34189,0.64505 6.83178,0.72209 7.141484,0.22098 0.117258,-0.18973 0.533773,-2.53644 0.925588,-5.21491 1.635687,-11.181682 4.970248,-21.504507 10.078625,-31.200486 2.191939,-4.160422 6.896049,-11.386643 9.644312,-14.815111 0.994082,-1.240123 1.807425,-2.297549 1.807425,-2.349832 0,-0.05228 -1.357108,-1.583219 -3.015796,-3.402082 -4.171318,-4.574129 -4.585602,-5.511734 -4.585602,-10.378089 0,-3.531136 0.08988,-4.072115 0.976575,-5.877662 1.664935,-3.390276 5.273909,-6.206551 8.779886,-6.851416 l 1.271177,-0.233812 0.220589,2.860519 c 0.121322,1.573285 0.407435,3.217143 0.635805,3.653018 0.633229,1.208607 4.682133,6.301783 6.045297,7.604472 l 1.208742,1.155119 2.953967,-2.327329 C 69.642702,29.101638 86.611812,22.080541 103.71451,19.99672 l 3.39457,-0.413599 0.22725,-4.489981 c 0.28936,-5.7172333 0.78168,-7.1509913 3.4587,-10.0724818 3.01677,-3.2922769 5.81534,-4.6323511 9.67228,-4.63149755 2.95183,6.5407e-4 4.99218,0.5858071 6.98126,2.00215475 l 1.00645,0.7166536 -1.38192,1.4992011 c -0.76005,0.8245604 -1.65132,1.910372 -1.9806,2.4129142 -0.76174,1.1625588 -1.61171,6.3533617 -1.61346,9.8534157 l -0.001,2.696384 3.44715,0.428308 c 17.23306,2.141204 33.59776,8.88302 47.04754,19.38232 l 3.29987,2.575983 2.99833,-2.838164 c 1.64907,-1.560991 3.74489,-3.27703 4.65735,-3.81342 1.5622,-0.918285 1.90693,-0.975252 5.90175,-0.975252 3.93115,0 4.39066,0.07269 6.25882,0.990077 3.34881,1.644493 5.75353,4.88854 6.76892,9.131531 l 0.22237,0.929219 -3.14236,0.150239 -3.14237,0.150239 -2.77558,2.086146 c -3.69915,2.780297 -6.2004,5.149123 -5.99691,5.679407 0.0912,0.237616 1.50286,2.238389 3.13707,4.446167 7.39968,9.996814 12.72572,20.973632 15.98825,32.951371 1.00473,3.688664 2.65755,13.056825 2.65755,15.062945 v 1.34079 l 4.87768,0.15567 c 4.13786,0.13206 5.12761,0.27666 6.52561,0.95342 2.5611,1.23981 5.74095,4.52818 7.0183,7.25781 1.0008,2.13867 1.08513,2.59632 0.9715,5.27225 -0.10569,2.48913 -0.30526,3.28644 -1.32558,5.29593 l -1.20115,2.36564 -1.80405,-1.53146 c -2.82233,-2.39587 -3.32917,-2.61624 -7.38322,-3.21025 -4.65533,-0.68212 -7.30279,-0.72342 -7.4681,-0.11652 -0.0662,0.24307 -0.39722,2.51023 -0.7356,5.03813 -2.155,16.09976 -9.03039,32.34244 -19.21011,45.38276 l -2.58739,3.31446 3.20394,3.26712 c 4.1504,4.23222 4.74565,5.51371 4.76633,10.26106 0.0135,3.09559 -0.10056,3.78521 -0.91643,5.542 -1.70521,3.67175 -5.17664,6.50172 -8.81157,7.18335 -1.22074,0.22892 -1.28541,0.19038 -1.5026,-0.89557 -0.12482,-0.62413 -0.22695,-1.83875 -0.22695,-2.69914 0,-0.8604 -0.26274,-2.07244 -0.58387,-2.69343 -0.61221,-1.18388 -3.29847,-4.64071 -5.66545,-7.29059 l -1.39388,-1.56049 -2.71344,2.15627 c -13.0014,10.33174 -29.26133,17.27682 -45.91458,19.61145 l -5.53631,0.77614 -0.12878,4.78425 c -0.10569,3.92662 -0.2621,5.0757 -0.87249,6.4101 -1.07222,2.34406 -4.58601,5.7915 -7.05506,6.92187 -2.43971,1.11694 -6.24372,1.42898 -8.48158,0.69573 z m 0.36936,-43.09619 c 0.0754,-0.24307 0.21857,-11.2806 0.31822,-24.52785 l 0.18118,-24.08591 -1.47353,-0.57882 -1.47353,-0.57882 -17.328946,17.34001 -17.328946,17.34001 0.883884,0.70774 c 2.53117,2.02674 8.464121,5.68591 12.374368,7.63195 6.658694,3.31387 14.227682,5.67791 22.27386,6.95684 0.48614,0.0773 1.0082,0.16216 1.16015,0.18864 0.15194,0.0265 0.33793,-0.15072 0.41329,-0.39379 z m 22.82175,-0.66657 c 9.51313,-1.91213 19.25952,-6.1316 27.312,-11.82409 1.55864,-1.10184 2.74004,-2.19267 2.74004,-2.52999 0,-0.32614 -7.65344,-8.25716 -17.00764,-17.62448 l -17.00764,-17.0315 -1.37714,0.54096 -1.37714,0.54095 v 24.53999 24.54 l 1.67938,-0.23837 c 0.92366,-0.1311 3.19082,-0.54216 5.03814,-0.91347 z m -53.561927,-43.01371 17.229371,-17.07538 -0.49833,-1.30939 -0.498333,-1.3094 -24.58559,-0.0908 -24.585587,-0.0908 0.307327,2.38888 c 1.106052,8.59739 4.965059,19.33562 9.785541,27.22964 2.104982,3.44712 5.07249,7.52746 5.391378,7.41317 0.123669,-0.0443 7.978073,-7.76451 17.454223,-17.15597 z m 96.249847,16.45667 c 2.98664,-3.2179 8.88233,-14.00606 11.02682,-20.17729 1.72419,-4.96173 3.55892,-12.87424 3.56042,-15.35483 l 4.9e-4,-0.79549 -24.48358,0.002 -24.48357,0.002 -0.57171,1.32402 -0.57172,1.32403 17.18737,17.23572 c 9.45306,9.47965 17.27958,17.23573 17.39226,17.23573 0.11269,0 0.53714,-0.35797 0.94322,-0.79549 z m 14.55308,-52.43857 c 0.54616,-0.54616 -1.68621,-10.652024 -3.52024,-15.936024 -2.2895,-6.596242 -9.22984,-19.068188 -11.35073,-20.397514 -0.49011,-0.307188 -3.41501,2.417057 -17.76606,16.547299 -9.44864,9.303267 -17.17935,17.109559 -17.17935,17.347319 0,0.23777 0.2241,0.9688 0.498,1.62453 l 0.49801,1.19222 24.33198,-0.11071 c 13.3826,-0.0609 24.40237,-0.1811 24.48839,-0.26712 z M 93.034194,105.79072 93.555947,104.41979 76.38382,87.317557 C 66.93915,77.91133 59.060004,70.215328 58.874611,70.215328 c -0.438989,0 -3.736511,4.650153 -6.062475,8.549289 -4.228548,7.088515 -7.586984,16.356253 -8.881184,24.507953 -0.216105,1.36118 -0.467539,2.83393 -0.558738,3.27277 l -0.165816,0.79791 24.653023,-0.0908 24.65302,-0.0908 z M 107.56779,67.8636 c 0,-20.515713 -0.079,-24.51833 -0.48401,-24.51833 -1.21459,0 -7.140255,1.181852 -10.829694,2.159943 -8.531601,2.261773 -19.208361,7.562348 -25.348491,12.584489 l -0.776531,0.635141 17.216763,17.431409 17.216763,17.431409 1.5026,-0.602865 1.5026,-0.602866 z m 35.88703,8.350221 17.32276,-17.336027 -0.88388,-0.709388 c -2.53391,-2.033653 -8.80553,-5.904104 -12.55115,-7.745785 -6.55453,-3.222788 -15.33681,-5.953885 -22.13126,-6.882341 l -1.62517,-0.222078 -0.22916,3.46068 c -0.12604,1.903372 -0.22998,12.945258 -0.23099,24.537517 l -0.002,21.076842 1.32583,0.543945 c 0.7292,0.299173 1.40598,0.55941 1.50395,0.578307 0.098,0.01888 7.97338,-7.766853 17.5009,-17.301672 z"
         style="fill:#000000;stroke-width:0.353553;stroke:#ffffff" />
      <path
         transform="translate(-28.136999,-378.23044)"
         d="M 120.73828 0.23242188 C 119.61892 0.23770234 118.49302 0.41726116 117.38477 0.75 C 114.99309 1.3341249 112.94578 2.6741966 110.79492 5.0214844 C 110.4601 5.3868858 110.15901 5.7285139 109.88867 6.0585938 C 109.8873 6.0602698 109.88614 6.0627777 109.88477 6.0644531 C 109.61636 6.3924688 109.37838 6.7078944 109.16602 7.0234375 C 108.95178 7.3407574 108.76505 7.6579486 108.59961 7.984375 C 107.76408 9.6329585 107.49994 11.536703 107.32617 15.113281 L 107.12109 19.333984 L 107.10938 19.585938 L 104.77539 19.828125 C 100.68834 20.251146 93.331352 21.720375 88.865234 23.005859 C 80.752505 25.340948 72.580708 28.975756 65.140625 33.496094 C 64.551487 33.854033 63.966239 34.215087 63.386719 34.583984 C 63.073191 34.782521 62.766353 34.984535 62.457031 35.185547 C 62.184012 35.363729 61.909287 35.540159 61.638672 35.720703 C 61.113449 36.069999 60.597213 36.423452 60.085938 36.779297 C 60.022252 36.823629 59.958067 36.867648 59.894531 36.912109 C 59.400532 37.257906 58.915229 37.607648 58.435547 37.958984 C 58.243358 38.099107 58.051976 38.239563 57.861328 38.380859 C 57.639752 38.546174 57.419354 38.71056 57.201172 38.876953 C 56.901509 39.103337 56.598303 39.327407 56.302734 39.556641 L 53.296875 41.886719 L 52.119141 40.759766 C 52.091961 40.733741 52.040405 40.673291 52.009766 40.642578 C 51.795005 40.428544 51.482174 40.074423 51.177734 39.730469 C 50.391126 38.824612 49.364158 37.564509 48.439453 36.353516 C 46.849758 34.271656 46.077969 33.044214 45.703125 31.585938 C 45.600151 30.961909 45.508246 30.246054 45.453125 29.53125 L 45.371094 28.46875 C 45.369435 28.385328 45.36449 28.316678 45.363281 28.230469 C 45.358611 27.897478 45.334011 27.642435 45.291016 27.423828 L 45.232422 26.669922 L 44.769531 26.755859 C 44.300011 26.655507 43.469336 26.910459 41.998047 27.460938 C 41.028264 27.823781 40.009653 28.431392 39.046875 29.185547 C 39.045725 29.186448 39.044118 29.186599 39.042969 29.1875 C 38.058093 29.93384 37.174946 30.820892 36.429688 31.794922 C 36.204289 32.08951 35.984928 32.385839 35.789062 32.695312 C 35.565243 33.040092 35.362688 33.387606 35.193359 33.732422 C 35.190807 33.73762 35.190039 33.740917 35.1875 33.746094 C 35.18584 33.749464 35.183296 33.752488 35.181641 33.755859 C 35.016998 34.091116 34.90524 34.359469 34.791016 34.634766 C 34.752298 34.728107 34.691823 34.843035 34.658203 34.933594 C 34.657569 34.935302 34.656882 34.937745 34.65625 34.939453 C 34.544997 35.240152 34.463953 35.537407 34.400391 35.859375 C 34.38791 35.922427 34.372265 35.981257 34.361328 36.046875 C 34.294571 36.447406 34.254658 36.900852 34.232422 37.474609 C 34.20999 38.051008 34.205078 38.747639 34.205078 39.632812 C 34.205078 40.235921 34.211253 40.778604 34.230469 41.275391 C 34.245267 41.660371 34.277489 41.997474 34.310547 42.333984 C 34.320224 42.432661 34.322429 42.549301 34.333984 42.644531 C 34.35966 42.855378 34.407193 43.041534 34.443359 43.238281 C 34.479514 43.435814 34.504528 43.645195 34.552734 43.832031 C 34.584888 43.955962 34.637665 44.072685 34.675781 44.193359 C 34.752763 44.438241 34.827443 44.684061 34.931641 44.921875 C 34.962061 44.990989 35.008061 45.061817 35.041016 45.130859 C 35.176563 45.416063 35.321255 45.702942 35.503906 45.996094 C 35.517284 46.017468 35.537132 46.041037 35.550781 46.0625 C 36.209111 47.102338 37.173363 48.243612 38.617188 49.839844 C 39.757034 51.100011 40.733957 52.283423 41.183594 52.927734 C 41.211727 52.970884 41.241203 53.014856 41.265625 53.054688 C 41.369766 53.214232 41.453125 53.352726 41.453125 53.402344 C 41.453125 53.637705 40.600023 54.93149 39.556641 56.277344 C 39.541218 56.297238 39.527125 56.317987 39.511719 56.337891 C 39.479688 56.379071 39.475515 56.384459 39.443359 56.425781 C 35.9465 60.919439 32.868997 65.765444 30.226562 70.865234 C 30.017585 71.267443 29.802861 71.667084 29.599609 72.072266 C 26.819957 77.613487 24.576359 83.430966 22.882812 89.492188 C 22.602377 90.495869 22.336138 91.506569 22.085938 92.523438 C 21.334362 95.578007 20.718607 98.68936 20.242188 101.85742 C 19.832799 104.57975 19.349145 106.95554 19.167969 107.13672 C 19.153003 107.15168 19.108263 107.16193 19.074219 107.17383 C 19.041158 107.18632 18.997709 107.19621 18.958984 107.20703 C 18.028002 107.36996 14.307786 107.05783 11.482422 106.64258 C 11.251808 106.60912 11.040943 106.57473 10.835938 106.54297 C 9.9724939 106.40309 9.2091167 106.25675 8.7324219 106.11328 C 7.8130653 105.8366 6.273244 104.8753 5.0351562 103.80273 L 2.9140625 101.96484 L 2.9082031 101.97852 L 1.6113281 104.70898 L 1.5957031 104.74023 C 0.43233373 107.18739 0.27727213 107.82807 0.28320312 110.16602 C 0.2856458 111.12893 0.33461252 111.83805 0.44921875 112.49023 C 0.4602994 112.55571 0.46388296 112.63309 0.4765625 112.69727 C 0.61484874 113.3972 0.8498592 114.03265 1.234375 114.86328 C 1.543805 115.53172 1.975355 116.24006 2.4882812 116.94727 C 2.7446388 117.30084 3.0207346 117.65285 3.3125 118 C 4.7718203 119.73623 6.6092788 121.32442 8.1777344 122.0918 C 9.9568316 122.96223 10.601679 123.06951 14.839844 123.19336 C 17.421026 123.26879 19.533203 123.38513 19.533203 123.45312 C 19.533203 123.52114 19.781592 125.37211 20.085938 127.56641 C 22.174001 142.62106 26.806185 155.18466 34.951172 167.65039 C 35.062304 167.82065 35.164911 167.99193 35.277344 168.16211 C 35.280457 168.16682 35.283995 168.17107 35.287109 168.17578 C 35.880267 169.07332 36.491384 169.96872 37.121094 170.86523 C 37.505979 171.41312 37.911643 171.96127 38.310547 172.50977 C 38.564771 172.85919 38.808452 173.209 39.068359 173.55859 L 39.087891 173.58398 C 39.09072 173.58779 39.092873 173.5919 39.095703 173.5957 L 41.90625 177.37695 L 41.064453 178.26172 L 40.027344 179.19727 C 39.408772 179.75588 38.735744 180.32368 38.050781 180.87305 C 37.955597 180.94762 37.860352 181.02089 37.763672 181.0957 C 37.207351 181.53522 36.649053 181.95883 36.103516 182.35352 C 35.786317 182.58268 35.512847 182.75825 35.208984 182.96875 C 34.133683 183.70286 33.143388 184.31776 32.492188 184.58984 C 32.011982 184.79049 31.090685 184.95869 30.146484 185.04883 C 29.688063 185.08182 29.221549 185.12109 28.789062 185.12109 L 26.548828 185.12109 L 26.546875 185.12109 L 26.787109 186.26953 C 26.851217 186.57712 26.930964 186.88909 27.025391 187.20312 C 27.214244 187.83119 27.461149 188.46724 27.753906 189.08984 C 28.193043 190.02374 28.735969 190.92796 29.34375 191.73242 C 29.748937 192.26873 30.183576 192.76078 30.634766 193.1875 C 30.946817 193.48262 31.258288 193.75373 31.572266 194.00391 C 31.886243 194.25408 32.201152 194.48192 32.523438 194.68945 C 33.490682 195.3125 34.50901 195.74894 35.666016 196.0293 C 36.051511 196.12271 36.451767 196.19784 36.871094 196.25781 C 36.871749 196.25791 36.872392 196.25772 36.873047 196.25781 C 37.291813 196.31765 37.728634 196.36183 38.1875 196.39062 C 38.647032 196.41951 39.128637 196.43356 39.634766 196.43359 C 39.635477 196.43359 39.636008 196.43359 39.636719 196.43359 C 39.643764 196.43359 39.64922 196.4336 39.65625 196.43359 C 41.247721 196.43296 42.422105 196.35614 43.46875 196.10352 C 43.520453 196.09158 43.577918 196.085 43.628906 196.07227 C 43.72026 196.0483 43.808785 196.01339 43.898438 195.98633 C 45.567849 195.5089 46.907443 194.57132 48.841797 192.77344 C 49.488148 192.17269 49.814236 191.878 50.40625 191.33203 L 53.283203 188.70508 L 53.291016 188.69727 L 54.355469 189.54492 C 60.129643 194.14497 66.422587 198.10213 72.990234 201.33789 C 75.499007 202.60173 77.986177 203.74821 80.34375 204.68555 C 82.370105 205.4912 84.615891 206.25642 86.947266 206.9668 C 92.874288 208.85132 98.885678 210.15009 104.82812 210.76562 L 107.21289 211.01172 L 107.20703 213.00391 C 107.19931 215.38156 106.38482 221.29103 105.90039 222.67188 C 105.86716 222.76343 105.83252 222.87976 105.80078 222.94336 C 105.59443 223.31839 104.73338 224.43572 103.86328 225.45508 C 102.98379 226.48542 102.26367 227.42717 102.26367 227.54883 C 102.26367 227.55075 102.26935 227.55465 102.26953 227.55664 C 102.26948 227.55739 102.26367 227.56376 102.26367 227.56445 C 102.26367 227.72616 102.9573 228.17419 103.84766 228.64844 C 104.16847 228.81932 104.52138 228.98698 104.87109 229.15234 C 105.0136 229.21979 105.1468 229.29175 105.28906 229.35547 C 105.77636 229.57391 106.25087 229.76558 106.65039 229.89648 C 108.88825 230.62973 112.6931 230.31616 115.13281 229.19922 C 116.30158 228.66414 117.74423 227.57448 119.04883 226.32617 C 119.37535 226.01378 119.69358 225.69315 119.99609 225.36719 C 120.90267 224.39036 121.67158 223.3809 122.12891 222.50586 C 122.63381 221.53977 122.833 220.78663 122.95312 218.67188 C 122.99317 217.96696 123.02589 217.11077 123.05664 216.04492 L 123.19922 211.08203 L 128.73047 210.30664 C 141.09506 208.57322 152.95464 204.44575 163.60352 198.22656 C 164.18785 197.8853 164.76292 197.52961 165.33984 197.17578 C 165.66615 196.97585 165.99659 196.78199 166.32031 196.57812 C 166.70668 196.33462 167.08591 196.07923 167.46875 195.83008 C 167.9482 195.51819 168.43092 195.21118 168.9043 194.89062 C 169.29828 194.62384 169.68424 194.34511 170.07422 194.07227 C 170.52791 193.7547 170.98394 193.44082 171.43164 193.11523 C 172.12249 192.61338 172.80315 192.09722 173.48047 191.57617 C 173.58041 191.49929 173.68357 191.42691 173.7832 191.34961 L 173.8125 191.32812 C 173.87712 191.27795 173.94332 191.23004 174.00781 191.17969 L 175.72461 189.83984 L 177.34375 188.57812 L 178.88477 190.29492 C 180.70283 192.32207 182.78583 195.00613 183.88867 196.68164 C 183.88909 196.68228 183.89021 196.68296 183.89062 196.68359 C 184.25734 197.2409 184.5138 197.68671 184.61719 197.95898 C 184.82504 198.50638 184.997 199.70033 185 200.61133 C 185.00266 201.52232 185.10498 202.63965 185.22656 203.09375 C 185.42233 203.82488 185.59403 203.89344 186.72461 203.69336 C 187.14558 203.61886 187.5649 203.51034 187.98242 203.375 C 191.11947 202.37258 194.01297 199.77796 195.53711 196.49609 C 195.84306 195.8373 196.0506 195.32892 196.18945 194.78711 C 196.23574 194.60651 196.27444 194.4213 196.30664 194.22656 C 196.43545 193.44761 196.45987 192.50092 196.45312 190.95312 C 196.45055 190.3609 196.43834 189.82294 196.41211 189.32617 C 196.41204 189.32478 196.41218 189.32366 196.41211 189.32227 C 196.38582 188.8259 196.34473 188.37129 196.2832 187.94531 C 196.28301 187.94399 196.2834 187.94273 196.2832 187.94141 C 196.22158 187.51573 196.13969 187.12053 196.03125 186.74023 C 195.9227 186.35957 195.78816 185.99491 195.62109 185.63477 C 195.62027 185.633 195.61996 185.63067 195.61914 185.62891 C 195.55952 185.50065 195.4704 185.37196 195.40234 185.24414 C 195.27897 185.01212 195.1652 184.78055 195.01172 184.54492 C 194.77677 184.18452 194.50423 183.81494 194.18945 183.42578 C 194.18893 183.42513 194.18803 183.42448 194.1875 183.42383 C 193.98398 183.1723 193.73095 182.89292 193.49023 182.62109 C 193.35587 182.46937 193.24629 182.33151 193.09961 182.17188 C 193.0931 182.1648 193.08466 182.15553 193.07812 182.14844 C 192.67375 181.70912 192.21768 181.23594 191.71289 180.7207 L 191.67969 180.68555 L 188.53711 177.48047 L 190.70898 174.66992 C 191.36038 173.82769 191.99606 172.97596 192.61914 172.11523 C 192.70925 171.99076 192.79721 171.86508 192.88672 171.74023 C 197.21977 165.81235 200.90797 159.20475 203.8125 152.23242 C 207.22097 144.13298 209.51346 135.66554 210.55469 127.13672 L 211.00781 123.42578 L 212.3125 123.31641 C 214.1928 123.15893 221.12017 124.18349 222.75195 124.83398 C 223.21651 125.07561 223.717 125.37832 224.24805 125.76172 C 224.2493 125.76265 224.2507 125.76274 224.25195 125.76367 C 224.76423 126.14714 225.32014 126.60002 225.79688 127.02734 L 227.53125 128.58008 L 227.57812 128.50781 L 228.18555 127.59375 C 228.19352 127.58174 228.20105 127.56871 228.20898 127.55664 C 228.36379 127.32343 228.50928 127.07823 228.64844 126.82422 C 228.79415 126.55825 228.93098 126.28152 229.05859 125.99609 C 229.1855 125.71226 229.30405 125.42081 229.41211 125.12109 C 229.51983 124.82232 229.61898 124.51629 229.70703 124.20508 C 229.70815 124.20115 229.70983 124.19729 229.71094 124.19336 C 229.79757 123.8861 229.87484 123.57392 229.94141 123.25781 C 229.95499 123.19338 229.96384 123.12722 229.97656 123.0625 C 230.02708 122.80521 230.07464 122.54788 230.11133 122.28711 C 230.1116 122.28519 230.11106 122.28317 230.11133 122.28125 C 230.15676 121.95737 230.19159 121.63098 230.21484 121.30469 C 230.21494 121.30339 230.21475 121.30208 230.21484 121.30078 C 230.2381 120.9732 230.25004 120.64506 230.25 120.31836 C 230.24995 119.89215 230.2292 119.47414 230.1875 119.06445 C 230.14636 118.65376 230.0838 118.25239 230 117.85742 C 229.83219 117.06651 229.57779 116.30445 229.23047 115.55859 C 229.14159 115.36774 229.03078 115.17913 228.92969 114.99023 C 228.82951 114.80177 228.73717 114.61226 228.625 114.42578 C 228.624 114.42411 228.62405 114.42159 228.62305 114.41992 C 228.60835 114.39568 228.58912 114.37187 228.57422 114.34766 C 227.92849 113.29153 227.09478 112.26369 226.04883 111.24023 C 226.03341 111.22515 226.02119 111.21418 226.00586 111.19922 C 225.98651 111.18016 225.97066 111.16165 225.95117 111.14258 C 223.62749 108.86886 222.32565 108.02902 219.46094 107.66406 C 219.40723 107.65722 219.36538 107.64518 219.31055 107.63867 C 218.31679 107.51678 217.14202 107.45084 215.68359 107.4043 L 210.80469 107.24805 L 210.80469 106.05273 C 210.80469 105.39578 210.56545 103.258 210.27148 101.30078 C 210.11769 100.27683 209.9443 99.256906 209.75781 98.240234 C 209.73688 98.12679 209.71277 98.013787 209.69141 97.900391 C 209.51713 96.969293 209.33041 96.041598 209.12891 95.117188 C 209.12847 95.115184 209.12739 95.113331 209.12695 95.111328 C 209.12523 95.10347 209.12282 95.095749 209.12109 95.087891 C 207.55896 87.932334 205.17938 80.987074 202.03906 74.361328 C 201.97928 74.234255 201.91969 74.107295 201.85938 73.980469 C 201.56243 73.3609 201.25759 72.744645 200.94727 72.130859 C 200.72411 71.685556 200.50128 71.240762 200.27148 70.798828 C 200.18204 70.628453 200.09048 70.458966 200 70.289062 C 197.25006 65.074504 194.04409 60.101971 190.41797 55.484375 C 190.12788 55.082433 189.65985 54.444664 189.52344 54.248047 C 189.14226 53.626223 189.0868 53.164222 189.46094 52.599609 C 189.71979 52.262669 190.10902 51.853496 190.62891 51.371094 C 190.95484 51.083152 191.32342 50.769038 191.77344 50.394531 C 192.45195 49.829867 192.8475 49.518159 193.37891 49.082031 C 193.75717 48.783778 194.04995 48.53593 194.48242 48.205078 L 196.30469 46.810547 C 197.89037 45.758243 198.78327 45.671605 200.90234 45.550781 L 202.82227 45.441406 L 204.08008 45.380859 L 204.07617 45.369141 L 203.85742 44.451172 C 203.85693 44.449134 203.85596 44.44735 203.85547 44.445312 C 203.83154 44.345282 203.79696 44.253214 203.77148 44.154297 C 203.66227 43.73088 203.54897 43.31035 203.41211 42.908203 C 203.24266 42.410134 203.05223 41.928292 202.8418 41.464844 C 202.84155 41.464308 202.84204 41.463426 202.8418 41.462891 C 202.6318 41.000561 202.40137 40.556343 202.15234 40.130859 C 202.15207 40.130384 202.15262 40.129382 202.15234 40.128906 C 201.90299 39.702974 201.63436 39.296768 201.34766 38.910156 C 200.20095 37.363209 198.7623 36.142559 197.08789 35.320312 C 195.21973 34.402926 194.76123 34.330078 190.83008 34.330078 C 186.83526 34.330078 186.49002 34.386403 184.92773 35.304688 C 184.69962 35.438785 184.398 35.646872 184.04883 35.90625 C 184.04794 35.906912 184.04777 35.90754 184.04688 35.908203 C 183.69818 36.167294 183.30162 36.477714 182.88281 36.820312 C 182.87971 36.822854 182.87811 36.82558 182.875 36.828125 C 182.45415 37.172565 182.01064 37.546842 181.57031 37.933594 C 181.41061 38.073811 181.26141 38.217205 181.10352 38.359375 C 180.8315 38.604494 180.55499 38.849319 180.29883 39.091797 L 180.28125 39.109375 C 180.27766 39.112772 180.27312 39.115746 180.26953 39.119141 L 177.32812 41.904297 L 174.5332 39.746094 C 172.71067 38.33802 170.84366 37.001418 168.94336 35.730469 C 161.85017 30.933229 154.03271 27.076585 145.84375 24.3125 C 145.83653 24.310063 145.82949 24.307123 145.82227 24.304688 C 145.82168 24.304489 145.8209 24.304886 145.82031 24.304688 C 145.39143 24.160046 144.9582 24.029265 144.52734 23.890625 C 143.91359 23.692593 143.30087 23.490204 142.68359 23.304688 C 139.60007 22.377959 136.47452 21.606934 133.31641 20.998047 C 133.306 20.99604 133.29556 20.99419 133.28516 20.992188 C 133.06894 20.950494 132.85122 20.919081 132.63477 20.878906 C 131.79502 20.72338 130.95523 20.570159 130.11133 20.4375 C 129.05155 20.270529 127.98941 20.122224 126.92578 19.992188 L 126.92383 19.992188 L 123.47852 19.570312 L 123.48438 17.050781 C 123.4898 15.098914 123.78005 12.203484 124.16797 9.8867188 C 124.24513 9.4470087 124.3153 9.0059151 124.4043 8.5703125 C 124.45774 8.3087359 124.70637 7.8378566 125.05273 7.2929688 C 125.07504 7.2578705 125.08814 7.2310623 125.11133 7.1953125 C 125.19662 7.0642609 125.30463 6.9191804 125.40039 6.78125 C 125.51918 6.6098027 125.62828 6.4440643 125.75977 6.2675781 C 125.84386 6.1547391 125.93741 6.0446482 126.02539 5.9316406 C 126.19118 5.7186965 126.35487 5.5044485 126.5293 5.2988281 L 127.25586 4.4414062 L 128.41406 3.078125 L 128.44727 3.0371094 L 127.60547 2.5019531 L 127.42773 2.3769531 C 126.78375 1.9183968 126.12741 1.555572 125.4375 1.2636719 C 123.93533 0.57220122 122.34527 0.22484107 120.73828 0.23242188 z M 123.99805 43.46875 C 124.29643 43.477785 124.74984 43.531192 125.26953 43.603516 C 125.89177 43.695547 126.51556 43.80269 127.13867 43.912109 C 128.58383 44.175754 130.2801 44.53302 131.96289 44.931641 C 137.15029 46.209693 142.26984 48.050275 147.04492 50.394531 C 150.44688 52.06467 154.49455 54.428284 157.30273 56.333984 C 157.35116 56.366734 157.39166 56.395275 157.43945 56.427734 C 158.32926 57.035771 159.09571 57.597672 159.6582 58.068359 L 160.38867 58.679688 C 160.15067 59.183309 156.84 62.68338 151.38672 68.228516 L 143.74805 75.90625 C 140.90881 78.760269 138.75627 80.895507 136.36133 83.283203 C 132.70151 86.921358 129.17978 90.418558 127.50195 92.050781 C 126.92014 92.609827 126.36328 93.143431 126.30664 93.171875 C 126.01496 93.318367 125.17842 93.203611 124.44922 92.916016 L 123.125 92.392578 L 123.125 79.039062 L 123.17969 68.0625 C 123.21378 61.205882 123.27416 55.030154 123.33984 50.556641 C 123.34612 50.343262 123.35102 49.94827 123.35742 49.771484 L 123.58398 43.509766 C 123.65564 43.478213 123.78471 43.46229 123.99805 43.46875 z M 106.17773 43.552734 C 106.77576 43.540765 107.15582 43.608327 107.25977 43.765625 C 107.26242 43.781647 107.26495 43.791898 107.26758 43.810547 C 107.28309 43.854169 107.29763 44.024807 107.3125 44.259766 C 107.318 44.337221 107.32475 44.448316 107.33008 44.539062 C 107.45998 47.218575 107.55773 56.911065 107.55859 68.271484 L 107.56055 92.3125 L 106.23242 92.869141 C 105.50153 93.175802 104.73042 93.369128 104.51953 93.298828 C 104.30864 93.228535 96.480135 85.40104 87.123047 75.902344 L 70.175781 58.699219 L 70.914062 58.078125 C 71.033638 57.977561 71.202197 57.86189 71.332031 57.757812 L 73.371094 56.298828 C 77.437764 53.389331 86.409331 48.76827 91.263672 47.083984 C 92.669892 46.596076 94.143963 46.144279 95.607422 45.724609 C 97.953623 45.072275 100.39226 44.479724 102.44922 44.060547 C 102.90331 43.973436 103.37595 43.877789 103.78125 43.8125 C 104.75565 43.655536 105.57599 43.564778 106.17773 43.552734 z M 58.808594 70.238281 C 59.034093 70.304393 66.872397 77.941076 76.314453 87.292969 L 84.908203 95.802734 L 93.546875 104.39062 L 93 105.76562 L 92.996094 105.77734 L 92.443359 107.16211 L 67.839844 107.25195 L 43.34375 107.34375 L 43.484375 106.19141 C 43.536411 105.76518 43.618207 105.32048 43.681641 104.88672 C 44.327987 101.33076 45.03111 98.140933 45.839844 95.232422 C 47.379019 90.024214 49.47003 84.844626 51.896484 80.46875 C 53.324695 77.893109 56.059891 73.708415 57.626953 71.578125 C 57.717156 71.460055 57.841627 71.275501 57.923828 71.171875 C 57.979818 71.098286 58.020772 71.050231 58.072266 70.984375 C 58.419483 70.558996 58.680683 70.288236 58.808594 70.238281 z M 171.97461 70.804688 C 172.18534 70.819826 172.41276 70.975302 172.66992 71.226562 C 172.67198 71.228575 172.67372 71.230393 172.67578 71.232422 C 172.98856 71.590882 173.39587 72.131843 173.82422 72.714844 C 174.21475 73.27858 174.61158 73.862305 175.19922 74.751953 C 177.93611 78.89546 180.20036 83.095359 182.01562 87.398438 C 182.02003 87.408876 182.0249 87.419248 182.0293 87.429688 C 182.04335 87.463362 182.05631 87.497558 182.07031 87.53125 C 182.35704 88.214757 182.62647 88.902871 182.89062 89.591797 C 182.98737 89.845171 183.08583 90.097513 183.17969 90.351562 C 183.44764 91.075093 183.70575 91.801205 183.94922 92.53125 C 183.95071 92.535732 183.95163 92.540439 183.95312 92.544922 C 184.11949 93.043228 184.2942 93.601341 184.4707 94.201172 C 184.47133 94.203306 184.47203 94.204896 184.47266 94.207031 C 184.96788 95.890593 185.47495 97.895882 185.91992 99.808594 C 186.53145 102.57768 187.03833 105.3356 187.11719 106.51562 L 187.11719 107.03906 C 187.10954 107.074 187.10294 107.11581 187.08984 107.12891 C 187.01969 107.19906 180.41351 107.2761 172.18555 107.33984 L 165.10938 107.3418 L 165.10938 107.33984 C 155.44289 107.34095 146.74799 107.4075 142.87695 107.49609 L 138.26367 107.51562 L 137.81641 106.44531 C 137.52884 105.75703 137.37315 104.97163 137.43555 104.60156 C 138.05964 103.7722 150.53234 91.310077 160.13672 81.828125 C 165.1477 76.929758 169.75109 72.460145 171.27539 71.091797 C 171.53096 70.907561 171.75429 70.78886 171.97461 70.804688 z M 43.34375 123.24805 L 44.410156 123.24805 L 67.892578 123.33398 L 92.429688 123.42578 L 92.75 124.19336 L 92.953125 124.70117 L 93.429688 125.90039 L 76.373047 142.94727 C 66.978638 152.33584 59.111238 160.01758 58.888672 160.01758 C 58.612429 160.01758 58.052103 159.45661 57.347656 158.57031 C 56.853613 157.86322 56.445271 157.28301 55.291016 155.57031 C 54.548832 154.46905 53.830178 153.32609 53.136719 152.14844 C 52.969159 151.86388 52.807033 151.57155 52.642578 151.2832 C 52.341548 150.75085 52.042522 150.21499 51.75 149.67188 C 51.696515 149.57243 51.642946 149.47285 51.589844 149.37305 C 51.293348 148.8173 51.009703 148.26127 50.730469 147.70703 C 50.612701 147.47207 50.492527 147.23845 50.376953 147.00195 C 47.11132 140.32604 44.374062 131.39631 43.517578 124.62695 L 43.373047 123.49219 L 43.34375 123.24805 z M 138.08594 123.24805 L 162.60156 123.24805 L 187.11719 123.24805 L 187.11719 124.16602 L 187.11719 124.17578 C 187.11664 124.33667 187.09742 124.56878 187.06055 124.86523 C 187.06032 124.8674 187.06078 124.86893 187.06055 124.87109 C 186.95655 125.70501 186.70708 127.05141 186.4043 128.5332 C 186.35537 128.76813 186.31448 128.98288 186.26172 129.22656 C 186.13821 129.81157 185.99796 130.41268 185.86133 131.01562 C 185.26656 133.54831 184.56447 136.21421 183.94922 138.05469 C 183.38322 139.74783 182.68729 141.54215 181.90625 143.35742 C 181.79796 143.60781 181.68195 143.85868 181.57031 144.10938 C 181.33004 144.65299 181.08578 145.19678 180.83203 145.74023 C 179.22286 149.14176 177.33167 152.52121 175.27344 155.62109 C 174.30002 157.08715 173.35413 158.42724 172.73438 159.24219 C 172.45896 159.56297 172.19235 159.87315 172.00977 160.04492 C 171.70534 160.10438 170.9546 159.5763 168.88477 157.64258 C 168.57594 157.34734 168.24401 157.02824 167.88867 156.68555 C 167.17569 156.00683 166.17192 155.02496 165.17969 154.05469 C 164.1576 153.05556 163.07423 151.99358 161.88281 150.81836 C 159.75945 148.7156 157.47689 146.44577 154.33398 143.30859 L 147.64062 136.62695 L 137.13867 126.12305 L 137.60938 124.69336 L 137.61133 124.68555 L 138.08594 123.24805 z M 104.58008 137.02148 L 106.0293 137.64062 L 106.03711 137.64453 L 107.48047 138.25977 L 107.32031 162.30859 C 107.27637 168.922 107.22213 174.98489 107.16797 179.42383 C 107.11261 183.86226 107.05948 186.67729 107.02148 186.79883 C 106.94544 187.0419 106.75936 187.22648 106.60742 187.20898 C 106.07331 187.14765 105.50043 187.05219 104.93945 186.9668 C 102.0147 186.46994 97.891207 185.47493 94.375 184.44531 C 91.726398 183.61172 89.098585 182.63947 86.628906 181.58203 C 81.017292 179.02688 74.248976 175.12053 70.630859 172.22656 C 70.175825 171.8626 70.469818 171.28569 75.832031 165.82422 C 78.884911 162.73678 82.813227 158.78599 87.255859 154.34375 L 87.333984 154.26562 C 87.334743 154.26487 87.335179 154.26443 87.335938 154.26367 L 104.58008 137.02148 z M 125.89648 137.11523 L 136.32617 147.58398 L 142.92773 154.22461 C 154.3077 165.67131 159.85914 171.49397 159.82227 171.93945 C 159.80411 172.0195 159.74776 172.11887 159.66992 172.22656 C 159.62046 172.29117 159.56444 172.35779 159.49219 172.43359 C 159.48192 172.44499 159.46972 172.45714 159.45898 172.46875 C 157.98131 173.98065 152.33204 177.51778 147.3418 179.97266 C 143.9861 181.62344 140.82146 182.94709 137.70312 184.00391 C 134.94995 184.85984 131.78314 185.70656 129.33008 186.2168 C 128.79502 186.31963 128.26099 186.42595 127.7207 186.51562 C 126.45674 186.72541 124.90542 186.98235 124.27344 187.08594 L 123.125 187.27344 L 123.125 162.73828 L 123.125 138.20508 L 124.50977 137.66016 L 124.51758 137.6582 L 125.89648 137.11523 z "
         style="fill:#000000;stroke-width:0.353553;stroke:#ffffff"
         id="path913" />
      <path
         transform="translate(-28.136999,-378.23044)"
         id="path918"
         d="m 106.65055,229.89575 c -1.62776,-0.53334 -4.38606,-2.00932 -4.38606,-2.34701 0,-0.12166 0.71958,-1.0642 1.59907,-2.09454 0.87948,-1.03035 1.75783,-2.17003 1.95189,-2.53263 0.46743,-0.87339 1.38414,-7.40341 1.39231,-9.91787 l 0.006,-1.99175 -2.38648,-0.2472 c -12.832313,-1.32919 -27.036957,-6.11595 -38.625712,-13.01629 -2.763116,-1.64526 -9.3056,-6.17533 -11.846528,-8.20264 l -1.063149,-0.84824 -3.618785,3.30369 c -4.276285,3.90394 -5.473498,4.43262 -10.037763,4.43262 -4.049081,0 -6.505039,-0.88588 -9.001449,-3.24688 -1.804759,-1.70687 -3.334143,-4.45704 -3.847007,-6.91778 l -0.239482,-1.14905 h 2.337544 c 1.285649,0 2.909051,-0.23879 3.607558,-0.53065 1.554271,-0.64941 4.939721,-3.07914 7.534227,-5.40729 l 1.932661,-1.73426 -2.865133,-3.85369 c -10.7642,-14.47881 -16.588151,-28.58098 -19.007905,-46.02708 -0.304346,-2.1943 -0.553357,-4.04528 -0.553357,-4.1133 0,-0.068 -2.111876,-0.18538 -4.693058,-0.26081 -4.238165,-0.12385 -4.884014,-0.23057 -6.6631112,-1.101 -2.5096114,-1.22784 -5.7060511,-4.55661 -6.9422193,-7.22962 -0.75556832,-1.63379 -0.94660994,-2.57609 -0.95198668,-4.69562 -0.005922,-2.33461 0.14991955,-2.98115 1.30345148,-5.40761 l 1.3101779,-2.75595 2.3337402,1.92498 c 1.4177908,1.16946 2.9168748,2.07181 3.8195044,2.29909 2.3812472,0.59961 9.7729982,1.25603 10.1282352,0.89943 0.174616,-0.17528 0.574051,-2.06879 0.887634,-4.20778 1.742999,-11.889283 4.868049,-21.819788 9.957806,-31.643032 2.354676,-4.544529 6.886063,-11.652508 9.787641,-15.352982 0.903371,-1.152103 1.642495,-2.286723 1.642495,-2.52138 0,-0.23466 -1.276246,-1.837615 -2.836099,-3.562124 C 34.6229,45.42356 34.205466,44.457829 34.205466,39.63296 c 0,-3.541887 0.0882,-4.068686 0.987913,-5.900837 1.271816,-2.589886 4.215527,-5.303058 6.804704,-6.271795 2.916809,-1.091317 3.344315,-1.010287 3.344315,0.63389 0,3.375216 0.623343,5.021452 3.158292,8.340993 1.343068,1.758762 2.971754,3.705045 3.619301,4.325071 l 1.177358,1.12732 3.005204,-2.330741 C 65.773838,32.21123 77.382371,26.31077 88.865393,23.005609 93.331511,21.720125 100.68779,20.250702 104.77484,19.827681 l 2.33357,-0.24153 0.21729,-4.472285 c 0.27699,-5.7010809 0.77659,-7.1545618 3.46933,-10.0932078 4.60484,-5.02537145 10.96033,-6.2273598 16.00641,-3.0272289 l 1.64634,1.0440768 -1.91822,2.2611766 c -1.05501,1.2436474 -2.01359,2.7159158 -2.13015,3.2717077 -0.50493,2.4075566 -0.90823,6.1463066 -0.91471,8.4798866 l -0.007,2.519607 3.44714,0.421369 c 17.1397,2.095103 33.58098,8.917145 47.60764,19.754013 l 2.79475,2.159193 2.97084,-2.812146 c 1.63396,-1.546679 3.7174,-3.251012 4.62987,-3.787402 1.56213,-0.918285 1.90686,-0.975252 5.90168,-0.975252 3.93115,0 4.39066,0.07269 6.25882,0.990077 3.36238,1.651158 5.75042,4.882745 6.77972,9.174583 l 0.23318,0.972272 -2.21644,0.0021 c -1.21905,0.0011 -2.82523,0.171017 -3.5693,0.377634 -1.37857,0.382803 -8.04816,5.517165 -8.94913,6.889186 -0.43761,0.666409 -0.24209,1.04062 2.30895,4.419417 9.72637,12.882361 16.2126,28.28064 18.59548,44.145532 0.29397,1.95722 0.53448,4.09607 0.53448,4.75302 v 1.19444 l 4.86136,0.1603 c 5.88169,0.19394 7.12715,0.64627 10.28347,3.73473 2.98799,2.92375 4.29995,5.72302 4.30033,9.17544 2.9e-4,2.62992 -0.76002,5.30859 -2.06507,7.27547 l -0.65464,0.98664 -1.7336,-1.5539 c -0.95347,-0.85464 -2.23583,-1.81212 -2.84968,-2.12772 -1.20696,-0.62054 -9.00653,-1.76097 -10.82498,-1.58281 l -1.11417,0.10902 -0.45314,3.71231 c -2.06019,16.87773 -9.00933,33.52136 -19.84643,47.53344 l -2.17246,2.80892 3.1774,3.24004 c 4.12146,4.20273 4.71912,5.49318 4.73977,10.23399 0.0135,3.09559 -0.10056,3.78521 -0.91643,5.542 -1.72643,3.71744 -5.20796,6.56089 -8.81263,7.19749 -1.1304,0.19964 -1.30204,0.13086 -1.49778,-0.60015 -0.12158,-0.4541 -0.22323,-1.571 -0.22589,-2.48199 -0.003,-0.911 -0.17489,-2.10425 -0.38274,-2.65165 -0.41417,-1.09077 -3.3101,-4.9615 -5.73418,-7.66436 l -1.54199,-1.71932 -3.33469,2.6032 c -13.0536,10.19018 -28.7132,16.80576 -45.27726,19.12791 l -5.53113,0.77542 -0.14314,4.96175 c -0.123,4.26338 -0.25342,5.17274 -0.92663,6.46086 -1.21954,2.33345 -4.65939,5.6249 -6.99692,6.69505 -2.43971,1.11694 -6.24372,1.42898 -8.48158,0.69573 z m 0.37138,-43.09619 c 0.0765,-0.24307 0.21097,-11.26388 0.29886,-24.4907 l 0.15981,-24.04876 -1.44999,-0.61923 -1.44998,-0.61923 -16.736179,16.71304 c -9.204904,9.19217 -16.896532,17.00163 -17.092511,17.35435 -0.507444,0.91332 -0.007,1.4047 4.288942,4.21094 7.096457,4.63566 14.812682,8.1075 22.149951,9.96618 2.885917,0.73106 7.937907,1.7739 9.415787,1.94362 0.15194,0.0175 0.33884,-0.16714 0.41531,-0.41021 z m 21.4933,-0.44563 c 8.00503,-1.42143 17.30234,-4.9828 24.57017,-9.4117 3.59613,-2.19142 6.8083,-4.62723 6.8083,-5.16278 0,-0.26203 -7.64514,-8.1702 -16.9892,-17.57372 l -16.98918,-17.09729 -1.39559,0.5482 -1.39559,0.5482 v 24.53435 24.53435 l 1.14905,-0.1852 c 0.63198,-0.10186 2.54089,-0.43235 4.24204,-0.73441 z m -52.153826,-43.40147 17.096619,-17.06544 -0.551257,-1.31934 -0.551257,-1.31934 H 67.83726 43.319008 l 0.488137,3.09359 c 1.130088,7.16202 3.286929,13.90521 6.643788,20.77126 2.97565,6.08634 7.426106,12.9047 8.423106,12.9047 0.21491,0 8.084228,-7.67945 17.487365,-17.06543 z m 98.733156,12.93766 c 4.17555,-6.20302 7.87626,-14.03656 9.69295,-20.5177 1.03639,-3.69738 2.3298,-9.91924 2.3298,-11.20735 v -0.91673 h -24.51537 -24.51537 l -0.47708,1.44555 -0.47708,1.44556 17.00337,16.97172 c 12.17929,12.15662 17.18804,16.93615 17.65428,16.84636 0.36147,-0.0696 1.83094,-1.87835 3.3045,-4.06741 z m 11.97247,-48.73711 c 0.33,-0.33001 -1.09205,-7.819849 -2.24338,-11.815677 -2.06063,-7.151696 -5.23204,-13.934459 -9.62494,-20.585081 -3.04303,-4.606981 -2.95664,-4.553817 -4.78556,-2.945156 -2.37934,2.092796 -33.14687,32.836024 -33.14687,33.120694 0,0.38852 0.8369,2.20969 1.10779,2.41064 0.30095,0.22326 48.46771,0.0398 48.69296,-0.18542 z M 93.001529,105.76306 93.559334,104.36447 76.301382,87.289899 C 66.809505,77.898885 58.912194,70.215328 58.751801,70.215328 c -0.160393,0 -1.597566,1.948963 -3.193715,4.331029 -6.14724,9.174042 -10.532773,20.454966 -11.93335,30.696213 l -0.287279,2.10064 24.553133,-0.0908 24.553134,-0.0908 z m 13.392111,-12.99134 1.17415,-0.424579 -0.005,-24.058994 c -0.003,-13.232446 -0.13011,-24.255307 -0.28251,-24.495246 -0.51891,-0.816949 -8.025961,0.662467 -15.000339,2.956113 -6.281039,2.065632 -17.046065,7.782498 -21.362241,11.344612 -0.762682,0.629435 -0.716812,0.679841 16.263456,17.870996 9.365562,9.481881 17.255644,17.237959 17.533524,17.235728 0.27787,-0.0021 1.03359,-0.195112 1.67938,-0.42863 z m 37.2057,-16.717302 17.06869,-17.141877 -1.00588,-0.84173 c -3.75732,-3.144136 -13.23597,-8.368651 -19.21389,-10.590451 -5.41196,-2.011454 -16.32134,-4.548613 -16.93211,-3.937842 -0.10124,0.101247 -0.25061,11.135828 -0.33192,24.521289 l -0.14784,24.337208 1.01615,0.369729 c 0.55888,0.203353 1.34509,0.38229 1.74713,0.397641 0.51216,0.01955 5.84052,-5.103532 17.79967,-17.113967 z"
         style="fill:#f9f9f9;stroke-width:0.353553;stroke:#ffffff" />
    </g>
  </g>
</svg>
